<svg xmlns="http://www.w3.org/2000/svg" viewBox="0 0 55 32"><defs><style>.cls-1{fill:#4ea025;}.cls-2{fill:none;stroke:#fff;stroke-miterlimit:10;stroke-width:0.43px;}.cls-3{font-size:7.58px;fill:#fff;font-family:Roboto-Medium, Roboto;font-weight:500;}.cls-4{letter-spacing:0.01em;}.cls-5{letter-spacing:-0.03em;}</style></defs><title>internetBanking</title><g id="Layer_4" data-name="Layer 4"><rect class="cls-1" width="55" height="32" rx="3"/></g><g id="Layer_2" data-name="Layer 2"><path class="cls-2" d="M5.42,13.52l3.29-3.28a.71.71,0,0,1,1,0L12,12.53a.7.7,0,0,1,0,1l-.17.17"/><polyline class="cls-2" points="6.83 13.58 9.93 10.47 10.6 11.14 8.27 13.48"/><circle class="cls-2" cx="10.76" cy="13.01" r="0.41"/><path class="cls-2" d="M13.23,19.22v2.24a.5.5,0,0,1-.5.51H3.8a.5.5,0,0,1-.5-.51V14.67a.5.5,0,0,1,.5-.5h8.93a.5.5,0,0,1,.5.5v2.24"/><rect class="cls-2" x="11.36" y="16.91" width="2.79" height="2.3" rx="0.3"/><text class="cls-3" transform="translate(16.39 15.48)">INTERN<tspan class="cls-4" x="26.52" y="0">E</tspan><tspan class="cls-5" x="30.88" y="0">T</tspan><tspan x="0" y="7.13">BANKING</tspan></text></g></svg>