<svg xmlns="http://www.w3.org/2000/svg" viewBox="0 0 55 32"><defs><style>.cls-1{fill:#4ea025;}.cls-2{fill:none;stroke:#fff;stroke-miterlimit:10;stroke-width:0.25px;}.cls-3{fill:#fff;}</style></defs><title>ThanhToanTienMat</title><g id="Layer_4" data-name="Layer 4"><rect class="cls-1" width="55" height="32" rx="3"/></g><g id="Layer_2" data-name="Layer 2"><path class="cls-2" d="M8.24,20l1.51.82,4.17-2.58a.29.29,0,0,1,.16,0,.44.44,0,0,1,.43.33l0,.17a.56.56,0,0,1-.21.58L9.93,22.59a1,1,0,0,1-.41.2l-.2.06a.7.7,0,0,1-.43,0L4.52,21.39a.78.78,0,0,0-.6.05l-1.39.68"/><path class="cls-2" d="M2.88,19.25l2.8-.95a.78.78,0,0,1,.37,0l4.82.61a.4.4,0,0,1,.35.44l0,.26a.45.45,0,0,1-.45.42L8.24,20l-1,0"/><path class="cls-2" d="M10.67,18.85l1.87-.75a.55.55,0,0,1,.31,0h0a.58.58,0,0,1,.39.54v.06"/><path class="cls-2" d="M10,13.6a.41.41,0,0,0-.41-.41H9a.41.41,0,0,0-.41.41v.24a.41.41,0,0,0,.41.41h.6a.41.41,0,0,1,.41.41v.24a.41.41,0,0,1-.41.41H9a.41.41,0,0,1-.41-.41"/><line class="cls-2" x1="9.28" y1="13.19" x2="9.28" y2="12.77"/><line class="cls-2" x1="9.28" y1="15.73" x2="9.28" y2="15.31"/><circle class="cls-2" cx="9.28" cy="14.25" r="2.59"/><circle class="cls-2" cx="9.28" cy="14.25" r="3.3"/><path class="cls-3" d="M21,19H19.41v4.39h-1.3V19H16.52V18H21Z"/><path class="cls-3" d="M23,23.39h-1.3V18H23Z"/><path class="cls-3" d="M24.76,17.29h-.65l-.88-1h.89ZM27.2,21.1h-2v1.29h2.41v1H23.86V18h3.72v1H25.16v1.14h2Zm0-3.37h-.8l-.53-.43-.53.43h-.82l1-.81h.61Z"/><path class="cls-3" d="M32.6,23.39H31.31L29.4,20v3.36H28.1V18h1.3l1.91,3.35V18H32.6Z"/><path class="cls-3" d="M37,18l1.2,3.75L39.42,18h1.71v5.39h-1.3V22.13L40,19.55l-1.3,3.84h-.86l-1.3-3.84.12,2.58v1.26h-1.3V18Z"/><path class="cls-3" d="M45,22.38H43.24l-.31,1H41.54l2-5.39h1.22l2,5.39h-1.4Zm.49-5.83a1,1,0,0,1-.37.82,1.75,1.75,0,0,1-2,0,1,1,0,0,1-.38-.82h.85a.43.43,0,0,0,.14.34.52.52,0,0,0,.38.13.56.56,0,0,0,.38-.12.45.45,0,0,0,.14-.35Zm-2,7.66a.49.49,0,0,1,.2-.4.78.78,0,0,1,.49-.16.83.83,0,0,1,.5.16.48.48,0,0,1,.19.4.47.47,0,0,1-.19.39.77.77,0,0,1-.5.16.72.72,0,0,1-.49-.16A.47.47,0,0,1,43.46,24.21Zm.09-2.83h1.16l-.58-1.87Z"/><path class="cls-3" d="M51.35,19H49.73v4.39h-1.3V19H46.85V18h4.5Z"/><path class="cls-3" d="M20.44,10.55H18.91v4.23h-.85V10.55H16.54V9.86h3.9Z"/><path class="cls-3" d="M21.82,11.52a1.26,1.26,0,0,1,1-.46c.78,0,1.18.44,1.19,1.33v2.39H23.2V12.42a.74.74,0,0,0-.17-.54.69.69,0,0,0-.48-.15.77.77,0,0,0-.73.44v2.61H21V9.59h.82Z"/><path class="cls-3" d="M27,14.78a1.34,1.34,0,0,1-.09-.34,1.4,1.4,0,0,1-1.86.09,1,1,0,0,1-.35-.78,1,1,0,0,1,.44-.89,2.06,2.06,0,0,1,1.24-.31h.5V12.3a.62.62,0,0,0-.16-.45.64.64,0,0,0-.48-.17.74.74,0,0,0-.46.14.43.43,0,0,0-.18.36h-.82a1,1,0,0,1,.2-.57,1.34,1.34,0,0,1,.54-.41,1.89,1.89,0,0,1,.77-.14,1.52,1.52,0,0,1,1,.32,1.17,1.17,0,0,1,.39.9v1.65a1.93,1.93,0,0,0,.14.79v.06Zm-.9-.59a1,1,0,0,0,.46-.12.82.82,0,0,0,.32-.32v-.69h-.44a1.19,1.19,0,0,0-.69.16.53.53,0,0,0-.23.45.48.48,0,0,0,.16.38A.61.61,0,0,0,26.13,14.19Z"/><path class="cls-3" d="M29.35,11.12l0,.43a1.3,1.3,0,0,1,1.06-.49c.76,0,1.15.43,1.16,1.3v2.42h-.82V12.41a.79.79,0,0,0-.15-.52.63.63,0,0,0-.49-.16.79.79,0,0,0-.74.45v2.6h-.82V11.12Z"/><path class="cls-3" d="M33.25,11.52a1.26,1.26,0,0,1,1-.46c.78,0,1.18.44,1.19,1.33v2.39h-.82V12.42a.74.74,0,0,0-.17-.54.66.66,0,0,0-.48-.15.77.77,0,0,0-.73.44v2.61h-.82V9.59h.82Z"/><path class="cls-3" d="M39,10.23v.89h.64v.61H39v2a.47.47,0,0,0,.08.3.38.38,0,0,0,.3.1,1.55,1.55,0,0,0,.29,0v.64a2.11,2.11,0,0,1-.54.07c-.64,0-.95-.34-.95-1V11.73h-.6v-.61h.6v-.89Z"/><path class="cls-3" d="M40.05,12.92a2.19,2.19,0,0,1,.21-1,1.48,1.48,0,0,1,.6-.66,1.61,1.61,0,0,1,.88-.23,1.57,1.57,0,0,1,1.2.47,1.85,1.85,0,0,1,.5,1.26V13a2.26,2.26,0,0,1-.2,1,1.48,1.48,0,0,1-.6.66,1.64,1.64,0,0,1-.89.23,1.59,1.59,0,0,1-1.24-.51A2,2,0,0,1,40.05,13Zm.82.07a1.44,1.44,0,0,0,.23.88.76.76,0,0,0,.65.32.77.77,0,0,0,.65-.32,1.69,1.69,0,0,0,.23-.95,1.44,1.44,0,0,0-.24-.88.8.8,0,0,0-1.29,0A1.68,1.68,0,0,0,40.87,13Z"/><path class="cls-3" d="M46.32,14.78a1.34,1.34,0,0,1-.09-.34,1.4,1.4,0,0,1-1.86.09,1,1,0,0,1-.35-.78,1,1,0,0,1,.44-.89,2.06,2.06,0,0,1,1.24-.31h.5V12.3a.62.62,0,0,0-.16-.45.64.64,0,0,0-.48-.17.74.74,0,0,0-.46.14.43.43,0,0,0-.18.36H44.1a1,1,0,0,1,.2-.57,1.34,1.34,0,0,1,.54-.41,1.89,1.89,0,0,1,.77-.14,1.52,1.52,0,0,1,1,.32,1.17,1.17,0,0,1,.39.9v1.65a1.93,1.93,0,0,0,.14.79v.06Zm-.9-.59a1,1,0,0,0,.46-.12.82.82,0,0,0,.32-.32v-.69h-.44a1.19,1.19,0,0,0-.69.16.53.53,0,0,0-.23.45.48.48,0,0,0,.16.38A.61.61,0,0,0,45.42,14.19Zm.46-4.6h.93l-.93,1h-.66Z"/><path class="cls-3" d="M48.64,11.12l0,.43a1.3,1.3,0,0,1,1.06-.49c.76,0,1.15.43,1.16,1.3v2.42h-.82V12.41a.79.79,0,0,0-.15-.52.63.63,0,0,0-.49-.16.79.79,0,0,0-.74.45v2.6h-.82V11.12Z"/></g></svg>