<svg xmlns="http://www.w3.org/2000/svg" viewBox="0 0 55 32"><defs><style>.cls-1{fill:#4ea025;}.cls-2{fill:#fff;}</style></defs><title>TraGop</title><g id="Layer_4" data-name="Layer 4"><rect class="cls-1" width="55" height="32" rx="3"/></g><g id="Layer_2" data-name="Layer 2"><path class="cls-2" d="M10.91,9.38H8.55v6.5H7.25V9.38H4.91V8.32h6Z"/><path class="cls-2" d="M14.68,13H13.22v2.91H11.9V8.32h2.66a3.1,3.1,0,0,1,2,.59,2.06,2.06,0,0,1,.71,1.7,2.16,2.16,0,0,1-.36,1.27,2.37,2.37,0,0,1-1,.78l1.7,3.15v.07H16.2Zm-1.46-1.06h1.35a1.53,1.53,0,0,0,1-.33,1.16,1.16,0,0,0,.37-.92,1.25,1.25,0,0,0-.35-.94,1.48,1.48,0,0,0-1-.34H13.22Z"/><path class="cls-2" d="M22.77,14.12H19.84l-.61,1.76H17.86l2.86-7.56H21.9l2.86,7.56H23.39Zm-2.56-1.06H22.4L21.31,9.92Zm.67-5.33,0-.76a1.93,1.93,0,0,0,.55-.1.26.26,0,0,0,.17-.25c0-.25-.26-.38-.78-.38l0-.64a2.55,2.55,0,0,1,1.32.27.83.83,0,0,1,.45.73.73.73,0,0,1-.2.52,1,1,0,0,1-.58.25v.36Z"/><path class="cls-2" d="M11.24,25.46a2.6,2.6,0,0,1-1.13.81,4.76,4.76,0,0,1-1.65.27,3.24,3.24,0,0,1-1.69-.43,2.87,2.87,0,0,1-1.13-1.23A4.4,4.4,0,0,1,5.23,23v-.6a4,4,0,0,1,.82-2.67,2.86,2.86,0,0,1,2.29-1,3,3,0,0,1,2,.63,2.69,2.69,0,0,1,.9,1.8H10a1.45,1.45,0,0,0-1.58-1.37A1.58,1.58,0,0,0,7,20.47a3.28,3.28,0,0,0-.47,1.86v.59a3,3,0,0,0,.52,1.9,1.69,1.69,0,0,0,1.43.67A1.9,1.9,0,0,0,9.93,25V23.56H8.38v-1h2.86Z"/><path class="cls-2" d="M18.72,22.86a4.74,4.74,0,0,1-.38,1.95,3,3,0,0,1-1.1,1.28,3.21,3.21,0,0,1-3.28,0,2.9,2.9,0,0,1-1.11-1.28,4.29,4.29,0,0,1-.4-1.91v-.43a4.59,4.59,0,0,1,.39-1.95,2.9,2.9,0,0,1,2.74-1.75,3,3,0,0,1,1.64.45,2.85,2.85,0,0,1,1.11,1.28,4.51,4.51,0,0,1,.39,1.94Zm-1.31-.4a3.24,3.24,0,0,0-.48-1.92,1.53,1.53,0,0,0-1.35-.67,1.56,1.56,0,0,0-1.33.66,3.29,3.29,0,0,0-.49,1.89v.44a3.21,3.21,0,0,0,.49,1.92,1.69,1.69,0,0,0,2.69,0,3.37,3.37,0,0,0,.47-1.94ZM16,16.85h1.44L16,18.43H15Z"/><path class="cls-2" d="M21.34,23.64v2.8H20V18.88h2.89a2.9,2.9,0,0,1,2,.66,2.21,2.21,0,0,1,.75,1.75A2.15,2.15,0,0,1,25,23a3.09,3.09,0,0,1-2,.62Zm0-1.06h1.58A1.54,1.54,0,0,0,24,22.25a1.21,1.21,0,0,0,.37-1,1.31,1.31,0,0,0-.37-1,1.44,1.44,0,0,0-1-.37H21.34Z"/><path class="cls-2" d="M40.94,18q0,4.24-1.59,6.39a5.58,5.58,0,0,1-4.82,2.15,5.7,5.7,0,0,1-4.8-2.09q-1.61-2.1-1.65-6.22v-3.4q0-4.23,1.58-6.35A5.66,5.66,0,0,1,34.5,6.36a5.68,5.68,0,0,1,4.81,2.07q1.59,2.06,1.63,6.17Zm-3.28-3.67a8.23,8.23,0,0,0-.76-4.05,2.88,2.88,0,0,0-4.76-.07,7.78,7.78,0,0,0-.8,3.81v4.46a8.57,8.57,0,0,0,.77,4.1,2.6,2.6,0,0,0,2.42,1.35,2.54,2.54,0,0,0,2.33-1.25,8,8,0,0,0,.8-3.91Z"/><path class="cls-2" d="M41.81,7.82a2.28,2.28,0,0,1,.67-1.7,2.38,2.38,0,0,1,1.75-.66A2.42,2.42,0,0,1,46,6.12a2.35,2.35,0,0,1,.66,1.74v.57A2.28,2.28,0,0,1,46,10.12a2.39,2.39,0,0,1-1.75.66,2.46,2.46,0,0,1-1.75-.65,2.27,2.27,0,0,1-.69-1.75Zm1.34.61a1.29,1.29,0,0,0,.3.88,1,1,0,0,0,.8.33A1,1,0,0,0,45,9.31a1.34,1.34,0,0,0,.3-.92V7.82a1.27,1.27,0,0,0-.3-.88,1,1,0,0,0-.8-.34,1,1,0,0,0-.79.34,1.32,1.32,0,0,0-.29.9Zm1.49,7.79-1-.57L49.25,6.7l1,.57Zm2.67-1.95A2.23,2.23,0,0,1,48,12.56a2.67,2.67,0,0,1,3.49,0,2.29,2.29,0,0,1,.68,1.76v.56a2.31,2.31,0,0,1-.65,1.69,2.69,2.69,0,0,1-3.53,0,2.29,2.29,0,0,1-.68-1.73Zm1.34.6a1.25,1.25,0,0,0,.31.88,1,1,0,0,0,.8.34,1,1,0,0,0,.79-.33,1.32,1.32,0,0,0,.29-.91v-.59a1.26,1.26,0,0,0-.31-.88,1,1,0,0,0-.79-.33,1,1,0,0,0-.79.33,1.3,1.3,0,0,0-.3.91Z"/></g></svg>