<svg width="30px" height="30px" viewBox="0 0 1024 1024" fill="#000000" class="icon" version="1.1" xmlns="http://www.w3.org/2000/svg"><g id="SVGRepo_bgCarrier" stroke-width="0"></g><g id="SVGRepo_tracerCarrier" stroke-linecap="round" stroke-linejoin="round"></g><g id="SVGRepo_iconCarrier"><path d="M298.4 486.4c0-13.6 11.2-24.8 24-24.8 13.6 0 24 11.2 24 24.8v72.8c0 13.6-11.2 24.8-24 24.8-13.6 0-24-11.2-24-24.8v-72.8z m-48.8 0v72.8c0 40.8 32.8 73.6 72.8 73.6 40.8 0 72.8-32.8 72.8-73.6v-72.8c0-40.8-32.8-73.6-72.8-73.6s-72.8 32.8-72.8 73.6zM680 486.4c0-13.6 11.2-24.8 24-24.8 13.6 0 24 11.2 24 24.8v72.8c0 13.6-11.2 24.8-24 24.8-13.6 0-24-11.2-24-24.8v-72.8z m-48.8 0v72.8c0 40.8 32.8 73.6 72.8 73.6 40.8 0 72.8-32.8 72.8-73.6v-72.8c0-40.8-32.8-73.6-72.8-73.6s-72.8 32.8-72.8 73.6z" fill=""></path><path d="M343.2 438.4V227.2c0-94.4 76.8-170.4 170.4-170.4 94.4 0 170.4 76.8 170.4 170.4v211.2h48.8V227.2C732.8 106.4 635.2 8 513.6 8 392.8 8 294.4 106.4 294.4 227.2v211.2h48.8z" fill=""></path><path d="M912 1013.6H115.2c-32 0-62.4-14.4-83.2-39.2-20.8-24.8-28.8-57.6-22.4-88.8v-0.8L128 389.6C139.2 340 183.2 304 233.6 304h560c50.4 0 94.4 36 104.8 85.6l118.4 496.8c6.4 32-1.6 64-22.4 88.8-20 24.8-49.6 38.4-82.4 38.4zM56.8 895.2c-3.2 17.6 0.8 35.2 12 48.8 11.2 13.6 28 21.6 45.6 21.6H912c17.6 0 34.4-8 45.6-21.6 11.2-13.6 16-31.2 12-48.8l-118.4-496c-5.6-27.2-29.6-47.2-57.6-47.2h-560c-28 0-52.8 20-57.6 47.2v0.8L56.8 895.2z" fill=""></path></g></svg>
